# xmcd
#
# Track frame offsets:
# 150
# 16532
# 28384
# 41619
# 54616
# 67456
# 79739
# 96688
# 110225
# 124936
# 138918
# 151997
# 165043
# 177821
# 191322
# 205332
# 219728
# 233413
# 245256
# 258323
#
# Disc length: 3639 seconds
#
#
# Revision: 1
# Processed by: cddbd v1.5.2PL0 Copyright (c) Steve Scherf et al.
# Submitted via: FreeRIP 2.945 
#
DISCID=170e3514
DTITLE=Charlie Parker - Now's The Time
DYEAR=2003
DGENRE=Jazz
TTITLE0=Get Happy
TTITLE1=1 Yard Bird Suite
TTITLE2=Ornithology
TTITLE3=Tiny's Tempo
TTITLE4=Be Bop
TTITLE5=Dizzy Atmosphere
TTITLE6=Congo Blues
TTITLE7=The Jumpin' Blues
TTITLE8=Lover Man
TTITLE9=Hot House
TTITLE10=Koko
TTITLE11=Hootie Blues
TTITLE12=Dream Of You
TTITLE13=A Night At Tunisia
TTITLE14=Takin' Off
TTITLE15=Salt Peanuts
TTITLE16=One Woman Man
TTITLE17=Groovin' High
TTITLE18=Dexter Blues
TTITLE19=Now's The Time
EXTD=YEAR: 2003
EXTT0=
EXTT1=
EXTT2=
EXTT3=
EXTT4=
EXTT5=
EXTT6=
EXTT7=
EXTT8=
EXTT9=
EXTT10=
EXTT11=
EXTT12=
EXTT13=
EXTT14=
EXTT15=
EXTT16=
EXTT17=
EXTT18=
EXTT19=
PLAYORDER=
